HIERARCHY
ROOT Hips
{
	OFFSET 0.000000 1.471914 24.280096
	CHANNELS 6 Xposition Yposition Zposition Xrotation Yrotation Zrotation
	JOINT Spine
	{
		OFFSET 0.000000 0.900110 1.860670
		CHANNELS 6 Xposition Yposition Zposition Xrotation Yrotation Zrotation
		JOINT Spine1
		{
			OFFSET 0.000000 0.400320 2.270309
			CHANNELS 6 Xposition Yposition Zposition Xrotation Yrotation Zrotation
			JOINT Spine2
			{
				OFFSET 0.000000 0.200920 2.296560
				CHANNELS 6 Xposition Yposition Zposition Xrotation Yrotation Zrotation
				JOINT Spine3
				{
					OFFSET 0.000000 0.000000 2.305330
					CHANNELS 6 Xposition Yposition Zposition Xrotation Yrotation Zrotation
					JOINT Neck
					{
						OFFSET 0.000000 -0.864490 6.051487
						CHANNELS 6 Xposition Yposition Zposition Xrotation Yrotation Zrotation
						JOINT Head
						{
							OFFSET 0.000000 -0.550429 3.121674
							CHANNELS 6 Xposition Yposition Zposition Xrotation Yrotation Zrotation
							End Site
							{
								OFFSET 0.000000 0.000000 3.731750
							}
						}
					}
					JOINT RightShoulder
					{
						OFFSET -0.788280 -1.313800 4.256718
						CHANNELS 6 Xposition Yposition Zposition Xrotation Yrotation Zrotation
						JOINT RightArm
						{
							OFFSET -3.915130 0.000000 0.000000
							CHANNELS 6 Xposition Yposition Zposition Xrotation Yrotation Zrotation
							JOINT RightForeArm
							{
								OFFSET -6.914910 0.000000 0.000000
								CHANNELS 6 Xposition Yposition Zposition Xrotation Yrotation Zrotation
								JOINT RightHand
								{
									OFFSET -6.096219 0.000000 0.000000
									CHANNELS 6 Xposition Yposition Zposition Xrotation Yrotation Zrotation
									JOINT RightHandEnd
									{
										OFFSET -1.749950 0.000000 0.000000
										CHANNELS 6 Xposition Yposition Zposition Xrotation Yrotation Zrotation
										End Site
										{
											OFFSET -1.749950 0.000000 0.000000
										}
									}
									JOINT RightHandThumb1
									{
										OFFSET -0.699980 -1.166630 -0.466648
										CHANNELS 6 Xposition Yposition Zposition Xrotation Yrotation Zrotation
										End Site
										{
											OFFSET -1.690319 -0.452920 0.000000
										}
									}
								}
							}
						}
					}
					JOINT LeftShoulder
					{
						OFFSET 0.788280 -1.313800 4.256718
						CHANNELS 6 Xposition Yposition Zposition Xrotation Yrotation Zrotation
						JOINT LeftArm
						{
							OFFSET 3.915130 0.000000 0.000000
							CHANNELS 6 Xposition Yposition Zposition Xrotation Yrotation Zrotation
							JOINT LeftForeArm
							{
								OFFSET 6.914910 0.000000 0.000000
								CHANNELS 6 Xposition Yposition Zposition Xrotation Yrotation Zrotation
								JOINT LeftHand
								{
									OFFSET 6.096219 0.000000 0.000000
									CHANNELS 6 Xposition Yposition Zposition Xrotation Yrotation Zrotation
									JOINT LeftHandEnd
									{
										OFFSET 1.749950 0.000000 0.000000
										CHANNELS 6 Xposition Yposition Zposition Xrotation Yrotation Zrotation
										End Site
										{
											OFFSET 1.749950 0.000000 0.000000
										}
									}
									JOINT LeftHandThumb1
									{
										OFFSET 0.699980 -1.166630 -0.466648
										CHANNELS 6 Xposition Yposition Zposition Xrotation Yrotation Zrotation
										End Site
										{
											OFFSET 1.690319 -0.452920 0.000000
										}
									}
								}
							}
						}
					}
				}
			}
		}
	}
	JOINT RightUpLeg
	{
		OFFSET -2.338570 -0.252550 -0.551512
		CHANNELS 6 Xposition Yposition Zposition Xrotation Yrotation Zrotation
		JOINT RightLeg
		{
			OFFSET 0.000000 0.000000 -10.744959
			CHANNELS 6 Xposition Yposition Zposition Xrotation Yrotation Zrotation
			JOINT RightFoot
			{
				OFFSET 0.000000 -0.000001 -10.930849
				CHANNELS 6 Xposition Yposition Zposition Xrotation Yrotation Zrotation
				JOINT RightToeBase
				{
					OFFSET 0.000000 -4.087269 -1.487650
					CHANNELS 6 Xposition Yposition Zposition Xrotation Yrotation Zrotation
					End Site
					{
						OFFSET 0.000000 -1.891870 0.000000
					}
				}
			}
		}
	}
	JOINT LeftUpLeg
	{
		OFFSET 2.338570 -0.252550 -0.551512
		CHANNELS 6 Xposition Yposition Zposition Xrotation Yrotation Zrotation
		JOINT LeftLeg
		{
			OFFSET 0.000000 0.000000 -10.744959
			CHANNELS 6 Xposition Yposition Zposition Xrotation Yrotation Zrotation
			JOINT LeftFoot
			{
				OFFSET 0.000000 -0.000001 -10.930849
				CHANNELS 6 Xposition Yposition Zposition Xrotation Yrotation Zrotation
				JOINT LeftToeBase
				{
					OFFSET 0.000000 -4.087269 -1.487650
					CHANNELS 6 Xposition Yposition Zposition Xrotation Yrotation Zrotation
					End Site
					{
						OFFSET 0.000000 -1.891870 0.000000
					}
				}
			}
		}
	}
}
MOTION
Frames: 4
Frame Time: 0.041667
-0.000071 26.869644 39.787476 1.679444 10.784607 -31.994013 0.000003 0.900102 1.860642 15.110634 -11.672658 0.961318 0.000002 0.400318 2.270310 -0.331906 -2.697509 0.056708 0.000001 0.200929 2.296549 0.326102 2.571594 9.603703 0.000003 0.000003 2.305342 0.029632 0.122306 -19.487793 0.000000 -0.864484 6.051451 8.052285 -0.392747 197.356308 -0.000009 -0.550435 3.121681 4.565546 1.139426 -17.069802 -0.788274 -1.313810 4.256717 -167.867649 57.534665 -23.042606 -3.915115 0.000008 -0.000018 -4.118506 -8.118581 2.414620 -6.914916 0.000006 -0.000017 4.498770 7.915171 -80.437116 -6.096231 0.000018 -0.000007 -0.000013 0.000002 -0.000021 -1.749948 -0.000006 0.000008 -0.000003 -0.000002 -0.000004 -0.699968 -1.166630 -0.466663 -0.000010 0.000004 -0.000007 0.788298 -1.313791 4.256711 -131.876200 -20.384297 82.094646 3.915146 0.000008 -0.000002 -19.751135 14.131445 2.822374 6.914911 0.000002 -0.000004 19.667793 -14.249514 74.631838 6.096244 0.000015 0.000003 0.000015 -0.000003 -0.000003 1.749961 -0.000029 -0.000000 0.000001 -0.000002 -0.000002 0.699992 -1.166609 -0.466654 -0.000001 0.000001 0.000011 -2.338568 -0.252514 -0.551503 7.446472 -3.169871 0.472515 0.000019 0.000000 -10.744981 14.072579 -1.282157 0.112454 -0.000009 -0.000009 -10.930830 -0.000026 0.000001 0.000005 -0.000014 -4.087265 -1.487626 4.424516 0.000002 0.000003 2.338577 -0.252542 -0.551482 10.557967 -5.348008 0.669207 -0.000005 -0.000027 -10.744931 11.069379 3.774377 -0.339436 0.000009 -0.000001 -10.930859 -0.000039 -0.000009 0.000006 0.000017 -4.087270 -1.487644 -2.493403 -0.000002 0.000003 
-0.000113 26.869637 39.787468 1.048642 10.734383 -33.041733 0.000001 0.900095 1.860644 15.564333 -9.643838 0.994135 0.000002 0.400318 2.270306 -0.331904 -2.697509 0.056703 0.000002 0.200926 2.296549 0.326100 2.571595 9.603704 0.000004 0.000008 2.305344 0.029643 0.122307 -19.608833 -0.000001 -0.864483 6.051454 10.146282 -3.055932 198.134157 -0.000008 -0.550436 3.121685 4.565552 1.139425 -17.069802 -0.788277 -1.313808 4.256710 -162.481212 58.699288 -27.556677 -3.915115 0.000013 -0.000026 -4.118506 -8.118581 2.414621 -6.914918 0.000005 -0.000021 4.498772 7.915167 -83.800144 -6.096233 0.000020 -0.000005 -0.000013 -0.000003 -0.000020 -1.749951 -0.000004 0.000000 0.000001 -0.000000 0.000000 -0.699972 -1.166627 -0.466669 -0.000007 -0.000003 -0.000004 0.788297 -1.313791 4.256711 -133.675271 -15.344737 82.406389 3.915145 0.000005 0.000002 -19.751130 14.131444 2.822372 6.914916 -0.000002 -0.000007 19.667791 -14.249508 77.279916 6.096241 0.000008 -0.000001 0.000017 -0.000001 -0.000003 1.749957 -0.000032 0.000004 0.000002 -0.000001 -0.000001 0.699991 -1.166611 -0.466641 0.000002 -0.000001 0.000012 -2.338569 -0.252523 -0.551500 6.603087 -2.484307 0.422208 0.000020 0.000001 -10.744978 16.133170 -0.331000 0.330080 -0.000010 -0.000010 -10.930835 -0.000022 -0.000001 0.000003 -0.000015 -4.087269 -1.487628 4.424510 0.000004 0.000007 2.338577 -0.252551 -0.551481 11.391256 -4.297459 0.728314 -0.000002 -0.000026 -10.744934 10.921053 4.029307 -0.131623 0.000008 -0.000005 -10.930859 -0.000039 -0.000006 0.000002 0.000011 -4.087266 -1.487643 -2.493403 -0.000001 0.000004 
-0.000135 26.869644 39.787415 1.359246 10.937698 -34.985008 0.000002 0.900099 1.860644 15.635843 -8.857301 1.354411 0.000002 0.400317 2.270312 -0.331906 -2.697508 0.056708 0.000001 0.200927 2.296549 0.326101 2.571595 9.603704 0.000001 0.000007 2.305336 0.029633 0.122307 -18.899147 -0.000002 -0.864483 6.051442 10.955283 -2.789968 196.405368 -0.000006 -0.550435 3.121681 4.565548 1.139427 -17.069799 -0.788275 -1.313809 4.256707 -154.949603 57.358597 -32.325974 -3.915123 0.000017 -0.000014 -4.118507 -8.118584 2.414619 -6.914921 0.000000 -0.000015 4.498766 7.915173 -91.058129 -6.096229 0.000021 0.000005 -0.000018 -0.000007 -0.000019 -1.749951 -0.000003 0.000009 0.000001 -0.000003 0.000002 -0.699972 -1.166628 -0.466669 -0.000004 0.000001 -0.000006 0.788295 -1.313789 4.256709 -135.766662 -13.541270 81.984072 3.915145 0.000004 -0.000006 -19.751133 14.131443 2.822373 6.914916 -0.000000 -0.000008 19.667803 -14.249529 79.781643 6.096247 0.000010 -0.000001 0.000017 -0.000001 -0.000007 1.749959 -0.000034 0.000001 -0.000001 -0.000001 -0.000001 0.699988 -1.166612 -0.466649 -0.000001 0.000000 0.000013 -2.338570 -0.252518 -0.551498 6.067533 -1.720019 0.528795 0.000020 -0.000003 -10.744971 17.117147 -0.613143 0.965863 -0.000009 -0.000010 -10.930834 -0.000026 -0.000000 0.000002 -0.000015 -4.087265 -1.487630 4.424515 0.000005 0.000011 2.338574 -0.252546 -0.551484 11.836101 -3.545103 1.029381 -0.000004 -0.000024 -10.744932 10.611685 2.959785 0.250700 0.000010 -0.000004 -10.930857 -0.000041 -0.000008 0.000007 0.000015 -4.087272 -1.487644 -2.493402 -0.000001 -0.000001 
-0.000134 26.869648 39.787403 1.477818 11.283198 -34.959586 0.000001 0.900098 1.860646 15.946187 -8.884655 1.375639 0.000003 0.400317 2.270318 -0.331904 -2.697509 0.056712 0.000003 0.200928 2.296559 0.326101 2.571595 9.603698 0.000001 0.000012 2.305341 0.029642 0.122306 -19.502628 -0.000000 -0.864481 6.051450 10.825840 -2.611495 197.196564 -0.000006 -0.550442 3.121685 4.565549 1.139426 -17.069800 -0.788278 -1.313806 4.256713 -157.878484 59.135389 -30.425382 -3.915120 0.000011 -0.000022 -4.118502 -8.118578 2.414621 -6.914915 0.000006 -0.000014 4.498774 7.915172 -93.184353 -6.096227 0.000015 -0.000002 -0.000016 -0.000001 -0.000020 -1.749948 0.000001 0.000006 0.000000 -0.000005 -0.000000 -0.699964 -1.166626 -0.466660 -0.000004 -0.000003 -0.000007 0.788294 -1.313788 4.256711 -137.571840 -15.422115 81.168117 3.915142 0.000009 0.000002 -19.751131 14.131446 2.822372 6.914912 -0.000004 -0.000005 19.667800 -14.249516 84.081459 6.096244 0.000012 0.000007 0.000020 0.000003 -0.000005 1.749960 -0.000037 0.000000 -0.000001 -0.000001 -0.000001 0.699989 -1.166615 -0.466641 0.000002 0.000003 0.000010 -2.338568 -0.252519 -0.551503 5.055099 -2.030292 0.438831 0.000018 0.000000 -10.744974 19.194908 -0.109808 0.973742 -0.000006 -0.000010 -10.930831 -0.000031 0.000000 -0.000000 -0.000015 -4.087266 -1.487629 4.424509 0.000003 0.000009 2.338576 -0.252547 -0.551481 11.956346 -3.543741 1.035650 -0.000006 -0.000026 -10.744934 10.822940 2.969693 0.252171 0.000008 -0.000001 -10.930856 -0.000038 -0.000009 0.000006 0.000011 -4.087270 -1.487644 -2.493401 0.000003 0.000003 
